<?xml version="1.0" encoding="utf-8"?>
<!-- Generator: Adobe Illustrator 28.2.0, SVG Export Plug-In . SVG Version: 6.00 Build 0)  -->
<svg version="1.1" id="Layer_1" xmlns="http://www.w3.org/2000/svg" xmlns:xlink="http://www.w3.org/1999/xlink" x="0px" y="0px"
	 viewBox="0 0 1350 495" style="enable-background:new 0 0 1350 495;" xml:space="preserve">
<style type="text/css">
	.st0{fill:none;stroke:#FFA4EB;stroke-width:5;stroke-miterlimit:10;}
	.st1{fill:#FFA4EB;}
</style>
<g>
	<ellipse class="st0" cx="675" cy="247.5" rx="675" ry="247.5"/>
	<g>
		<g>
			<path class="st1" d="M339.7,184.4v51.95h60.06V184.4h16.21v124.17h-16.21v-58.22H339.7v58.22h-16.03V184.4H339.7z"/>
			<path class="st1" d="M502.01,308.57v-52.69l-39.24-71.48h18.24l17.5,34.27c4.79,9.4,8.47,16.95,12.34,25.61h0.37
				c3.5-8.11,7.74-16.21,12.53-25.61l17.87-34.27h18.24l-41.64,71.3v52.88H502.01z"/>
			<path class="st1" d="M677.4,250.36h-48.27v44.77h53.8v13.45H613.1V184.4h67.06v13.45h-51.03v39.24h48.27V250.36z"/>
			<path class="st1" d="M768.22,184.4h16.03v83.09c0,32.98-16.21,43.11-37.58,43.11c-5.9,0-13.08-1.29-17.13-2.95l2.39-13.08
				c3.32,1.29,8.11,2.4,13.45,2.4c14.37,0,22.84-6.45,22.84-30.77V184.4z"/>
			<path class="st1" d="M866.05,184.4v124.17h-16.03V184.4H866.05z"/>
			<path class="st1" d="M933.11,308.57V184.4h17.5l39.79,62.82c9.21,14.55,16.4,27.64,22.29,40.35l0.37-0.18
				c-1.47-16.58-1.84-31.69-1.84-51.03V184.4h15.11v124.17h-16.21l-39.43-63.01c-8.66-13.82-16.95-28-23.21-41.45l-0.55,0.18
				c0.92,15.66,1.29,30.58,1.29,51.22v53.06H933.11z"/>
		</g>
	</g>
</g>
<g>
	<text transform="matrix(1 0 0 1 291.437 820.4418)" class="st1" style="font-family:'MyriadPro-Regular'; font-size:184.2358px;">H Y E J I N</text>
</g>
</svg>
