<?xml version="1.0" encoding="utf-8"?>
<!-- Generator: Adobe Illustrator 28.2.0, SVG Export Plug-In . SVG Version: 6.00 Build 0)  -->
<svg version="1.1" id="Layer_1" xmlns="http://www.w3.org/2000/svg" xmlns:xlink="http://www.w3.org/1999/xlink" x="0px" y="0px"
	 viewBox="0 0 960 445" style="enable-background:new 0 0 960 445;" xml:space="preserve">
<style type="text/css">
	.st0{fill:#FFA4E1;}
</style>
<g>
	<g>
		<path class="st0" d="M299.46,44.57c0-28.35,33.13-44.28,78.68-44.28c45.35,0,89.66,12.83,101.46,15.93
			c3.11,0.83,11.39,3.52,15.74,5.38c1.86,0.83,4.97,2.28,3.93,3.31c-0.62,0.62-3.11-1.03-6.21-1.03c-7.25,0-18.64,6.21-31.47,16.76
			c-11.6,9.73-23.61,21.93-32.72,31.87c3.52,5.17,5.59,11.38,5.59,18.42c0,2.48-0.41,5.38-1.03,8.48
			c7.87-8.9,16.15-17.59,23.81-24.83c33.75-31.45,68.74-57.11,103.74-57.11c8.9,0,19.05,2.9,22.36,7.86c0.83,1.24,1.24,3.31,0,3.72
			c-0.62,0.21-1.45-0.62-2.9-2.07c-4.14-4.14-10.77-7.24-18.84-7.24c-32.72,0-67.71,37.45-93.8,64.77
			c-19.26,20.28-32.09,37.04-39.96,47.8c-5.59,7.86-7.66,12-11.39,12c-3.73,0-5.59-6-3.93-12.83c1.66-6.21,4.56-12.21,15.32-25.24
			c2.49-4.76,3.52-10.14,3.52-15.11c0.21-6.62-1.66-12.62-4.76-16.35c-11.39,12.62-21.53,22.55-31.27,31.45
			c-47.62,42.63-84.69,51.73-110.98,51.73c-16.98,0-33.54-6.21-33.54-28.76c0-25.04,19.67-50.9,55.28-67.66
			C301.53,57.6,299.46,51.81,299.46,44.57z M372.34,52.43c-23.4,0-48.24,8.07-74.13,24.21c-23.6,14.69-44.1,33.73-44.1,52.56
			c0,20.69,14.49,25.66,28.99,25.66c23.6,0,50.94-12.41,91.93-49.87c11.18-9.93,24.64-24,41.41-40.35
			C406.51,56.15,389.11,52.43,372.34,52.43z M378.14,9.39c-39.13,0-75.78,10.97-75.78,35.18c0,6,1.66,11.8,6.63,15.73
			c20.91-8.9,42.24-11.38,59.84-11.38c21.95,0,39.96,5.59,49.69,13.66c10.77-9.93,24.02-20.49,37.89-28.56
			c11.8-7.04,23.19-11.17,32.51-12.21C473.18,17.67,429.9,9.39,378.14,9.39z"/>
		<path class="st0" d="M507.54,125.47c-10.15,10.97-25.05,29.18-44.1,43.87c-27.75,21.52-59.43,30.83-85.93,30.42
			c-19.67-0.41-39.75-8.9-42.86-24.62c-0.62-3.1,0-5.17,1.04-5.38c1.03-0.41,1.24,1.65,1.66,3.31c2.9,15.11,22.36,22.76,39.13,22.97
			c25.05,0.83,53.42-14.48,71.85-29.18c16.77-13.24,39.75-36.42,48.24-46.56c0.62-0.62,0.21-0.62-0.21-0.21
			c-2.69,2.48-9.52,8.69-11.18,9.93c-7.87,6.41-16.98,13.24-25.68,12.83c-6.83-0.21-9.52-4.55-9.52-9.31
			c0-6.21,5.8-15.11,14.91-24.21c8.07-8.48,22.36-19.86,30.64-24.83c3.31-1.86,13.04-3.31,20.08-3.31
			c-18.43,15.11-36.65,32.9-43.9,41.8c-4.76,5.79-7.87,10.35-7.87,12.62c0,1.66,0.83,2.28,2.48,2.28
			c3.93-0.21,11.39-5.38,17.39-10.14c7.87-6.41,12.22-10.97,19.67-18.41c8.28-8.48,22.78-22.35,31.06-27.11
			c3.11-1.66,12.84-2.69,17.81-2.28C536.74,93.61,516.86,115.33,507.54,125.47z"/>
		<path class="st0" d="M541.71,134.58c0,3.31,2.49,4.55,6.01,4.55c5.8,0,14.49-3.73,21.74-8.69c7.87-5.17,18.43-14.07,24.85-19.66
			c1.24-1.24,2.28-2.07,3.11-1.24c0.62,0.62,0.21,1.45-0.62,2.27c-4.76,4.97-15.53,13.86-22.36,18.83
			c-10.15,7.45-20.29,11.8-28.99,11.8c-9.32,0-16.15-3.31-16.15-12s4.97-18,13.46-26.69c14.29-14.48,38.1-24.62,49.49-24.62
			c6.83,0,8.28,3.73,8.28,7.04c0,3.93-3.11,8.69-7.87,12c-7.66,5.38-18.22,8.07-25.26,8.07c-2.07,0-3.93-0.41-4.97-0.83
			C551.02,115.33,541.71,126.92,541.71,134.58z M565.1,104.37c4.14,0,13.04-3.31,21.12-9.73c5.59-4.55,9.73-9.1,9.73-11.79
			c0-0.83-0.21-1.24-1.24-1.24c-4.35-0.21-21.53,13.24-31.06,22.55C564.07,104.37,564.48,104.37,565.1,104.37z"/>
		<path class="st0" d="M641.71,125.47c-10.15,10.76-27.74,29.8-43.07,42.21c-20.29,16.35-49.9,32.07-83.24,32.07
			c-21.74,0-38.31-8.07-41.41-24.62c-0.62-3.52,0-5.17,1.24-5.38c1.24-0.21,1.24,1.45,1.86,4.34c3.31,15.11,17.6,22.14,38.1,22.14
			c27.12,0,53.21-19.24,69.78-33.31c12.42-10.35,32.3-30.62,52.59-52.35c8.28-8.69,21.95-21.73,26.92-25.25
			c6.01-4.34,19.67-5.17,22.36-4.97C674.43,90.5,649.58,116.99,641.71,125.47z M689.33,71.47c-4.56,0-8.28-3.72-8.28-8.28
			c0-4.55,3.73-8.28,8.28-8.28s8.28,3.72,8.28,8.28C697.62,67.74,693.89,71.47,689.33,71.47z"/>
		<path class="st0" d="M680.64,124.02c-4.76,5.38-8.28,10.14-8.28,12.83c0,1.66,0.83,2.28,2.28,2.28c4.14,0,13.46-5.59,19.67-10.35
			c6.83-5.17,14.7-11.79,19.26-15.93c0.83-0.41,2.07-1.86,3.1-0.83c0.83,1.03,0,2.07-1.24,3.1c-4.14,3.93-15.32,13.04-19.67,16.35
			c-6.83,4.97-16.15,11.18-22.78,11.18c-7.45,0-10.77-3.93-10.77-10.14c0-6,3.52-13.86,11.18-21.93
			c8.08-8.48,24.02-23.59,32.3-28.14c3.11-1.66,15.94-2.28,18.63-2.07C706.52,96.3,687.88,115.54,680.64,124.02z M729.29,71.47
			c-4.56,0-8.28-3.72-8.28-8.28c0-4.55,3.73-8.28,8.28-8.28s8.28,3.72,8.28,8.28C737.58,67.74,733.85,71.47,729.29,71.47z"/>
		<path class="st0" d="M796.38,115.13c-6.21,5.59-13.67,12-22.98,18.42c-8.08,5.38-15.94,9.52-23.19,9.52
			c-5.59,0-9.94-2.9-9.94-8.69c0-3.1,1.24-7.04,4.14-10.97c5.38-7.24,9.32-10.97,17.81-18.83c6.42-6,21.33-16.14,21.33-20.69
			c0-0.83-0.41-1.24-1.86-1.24c-6.42,0-34.16,16.97-49.07,31.04c-13.25,12.62-19.05,19.45-26.5,29.38c-2.69,0-4.35-3.72-4.35-8.07
			c0-5.17,9.32-20.07,22.98-34.56c7.04-7.24,12.01-11.38,16.77-14.48c6.83-4.35,16.36-5.59,23.19-5.59
			c-6.83,4.55-20.5,16.55-29.4,26.28c-0.83,1.03-0.21,1.03,0.41,0.62c11.39-9.31,36.03-27.73,48.66-27.73
			c5.59,0,9.73,2.69,9.73,7.24c-0.21,5.38-6.01,13.66-16.56,23.38c-6.63,6-12.42,11.79-16.56,16.14c-5.38,5.59-7.45,8.48-7.45,10.35
			c0,1.45,0.83,2.07,2.07,2.07c3.52,0,10.77-3.73,17.81-8.69c7.25-5.17,14.49-10.97,21.33-17.17c0.62-0.41,2.07-1.86,2.9-0.83
			C798.45,113.06,797.41,114.09,796.38,115.13z"/>
	</g>
	<g>
		<path class="st0" d="M359.89,184.37c-8.08,1.97-20.69,7.59-27.16,12.09c20.05,11.53,30.72,28.4,30.72,44.7
			c-0.32,6.75-1.94,13.21-5.82,19.4c-13.58,21.93-46.56,28.68-73.72,28.68c-10.35,0-18.75-0.56-25.87-2.53
			c-3.56-0.84-6.14-2.81-4.53-5.34c1.29-1.97,3.88-1.69,6.47-0.28c6.79,3.66,8.08,4.5,14.55,4.5c20.37,0,42.68-10.4,57.88-31.49
			c6.47-9,9.05-18.84,9.05-27.84c0-11.25-4.53-21.37-12.29-26.99c-32.01,21.37-59.82,61.86-80.84,82.38
			c-64.99,63.82-122.55,75.07-171.7,79.29c29.42,4.78,60.14,8.15,81.48,8.15c22.31,0,43.65-3.66,58.2-19.68
			c1.29-1.12,1.62-1.69,2.26-1.41c1.29,0.28,0.65,3.37-0.32,5.62c-12.29,30.65-43.01,53.7-82.13,53.7
			c-36.86,0-64.02-16.59-74.05-44.14c-10.67,1.12-27.81,8.72-49.47,8.72C4.2,371.9,0,369.93,0,366.84c0-7.31,13.58-10.4,27.81-10.4
			c10.02,0,22.31,1.69,33.3,2.25c-1.94-6.47-3.23-14.62-3.23-25.87c0-38.24,19.4-74.79,51.74-102.91
			c38.16-32.9,88.92-50.05,147.45-50.05c35.25,0,57.88,6.75,70.17,13.5c7.76-4.5,20.37-9.56,30.39-11.53
			c5.82-1.13,13.26-1.69,12.93,0.28C370.23,183.52,366.68,182.68,359.89,184.37z M260.3,184.08c-51.41,0-100.56,21.65-137.75,54.55
			c-37.83,33.74-57.88,66.92-59.17,98.97c-0.32,7.87,0.65,14.9,2.26,21.09c55.29-3.09,98.94-32.33,147.45-77.88
			c34.6-32.33,73.4-66.07,109.94-84.91C311.06,189.71,289.07,184.08,260.3,184.08z M158.76,380.34c-26.51,0-46.56-6.47-87.63-17.71
			c-1.29-0.28-2.91-0.28-4.2,0c10.02,26.71,38.48,40.21,69.2,40.21c34.27,0,60.79-18.28,76.96-45.55
			C201.77,367.97,188.84,380.34,158.76,380.34z"/>
		<path class="st0" d="M381.87,324.1c-2.59,2.53-4.85,5.62-4.85,8.15c0,1.97,1.62,3.37,4.2,3.37c5.5,0,11.96-5.06,18.11-9.84
			c1.29-0.84,2.26-0.84,3.23,0c0.97,1.41,0.32,2.53-0.65,3.09c-6.47,5.62-14.87,10.68-21.34,10.68c-6.14,0-9.05-2.81-9.7-5.06
			c-26.51,23.34-49.15,33.46-63.05,33.46c-10.67,0-21.02-4.5-21.02-16.87c0-10.4,8.73-26.15,23.6-39.08
			c25.22-22.21,53.35-30.65,71.14-30.65c12.93,0,18.11,3.37,18.11,10.68C399.65,300.49,393.19,312.58,381.87,324.1z M389.63,286.15
			c-9.7,0-33.95,15.75-60.14,39.36c-15.2,13.5-27.81,26.71-27.81,33.74c0,2.81,1.62,4.5,5.17,4.5c9.38,0,32.66-16.31,60.79-41.33
			c0.32-4.5,1.94-9.28,4.53-12.37c3.56-4.5,8.41-7.31,14.87-8.15c2.59-2.81,6.79-8.72,6.79-12.65
			C393.83,287.27,392.22,286.15,389.63,286.15z"/>
		<path class="st0" d="M421.64,367.97c-8.73,0-15.84-3.66-15.84-11.81c0-12.37,22.63-31.21,34.6-40.21
			c19.4-15.18,28.45-21.93,28.45-24.74c0-1.97-2.26-2.25-7.11-4.22c-2.91-1.12-4.85-2.25-5.82-3.66
			c-8.08,7.59-16.17,14.62-24.57,21.65c-13.9,11.81-27.81,23.06-35.57,28.68c-1.62,1.12-3.56,1.97-4.53,0.56
			c-0.65-1.12,0.32-2.53,1.94-3.66c10.99-8.15,24.25-19.4,35.25-28.68c10.35-8.72,17.46-15.18,24.9-22.21
			c-2.26-3.66-1.29-9.84,3.56-14.9c2.91-3.66,7.76-5.62,13.26-6.75c3.56-0.84,8.73-1.12,14.87-1.12c4.2,0,9.38,0.28,9.38,1.69
			c0,2.53-10.35,7.59-19.72,11.53c-7.44,3.37-14.23,7.87-14.23,10.68c0,1.69,5.17,2.81,8.08,4.22c10.99,3.94,15.2,7.59,15.2,12.37
			c-0.32,7.87-11.32,18.56-25.22,30.37c-3.88,3.66-13.58,11.53-20.37,17.71c-8.41,7.31-11.32,11.25-11.32,14.06
			c0,1.69,0.97,2.81,3.56,2.81c5.17,0,16.17-5.06,26.84-11.81c11.32-7.03,24.57-16.31,33.63-23.34c2.26-1.69,3.88-2.53,4.85-1.41
			c1.29,0.84,0,2.53-2.26,4.5c-9.05,7.03-23.28,17.15-35.25,24.74C447.5,361.5,433.92,367.97,421.64,367.97z"/>
		<path class="st0" d="M585.25,290.08c0.32,0,2.26,0.28,1.62,1.97c-0.65,1.12-2.26,1.12-3.56,1.12c-5.82,0-19.08-0.28-26.51,0
			c-12.61,10.97-40.1,34.3-51.74,46.96c-7.11,7.87-11.32,13.5-11.32,17.15c0,2.53,1.62,4.22,5.5,4.22c6.79,0,18.11-6.19,27.16-11.81
			c8.08-5.06,25.87-17.71,35.57-25.31c1.29-1.12,3.23-2.25,4.53-1.12c1.29,1.12,0.32,2.53-1.62,3.94
			c-11.32,9-25.54,19.4-37.51,26.71c-11.64,7.03-26.19,14.34-38.16,14.34c-10.99,0-15.84-5.06-15.84-11.81
			c0-4.5,1.62-9.56,5.17-14.62c7.11-9.84,23.93-26.43,49.47-48.92c-5.5,0-15.2-0.28-19.73,0c-0.97,0-3.56,0.28-3.23-1.41
			c0.32-1.12,1.94-1.69,3.56-1.69c3.88-0.28,14.55-0.28,22.63-0.28c26.84-23.06,44.3-34.86,57.56-41.61
			c4.85-2.53,11.96-5.06,17.78-6.75c6.14-1.69,15.52-2.53,23.28-2.53c2.26,0,4.2,0,6.14,0.28c1.29,0.28,1.29,0.84,0,1.12
			c-9.38,1.41-20.37,7.59-25.87,11.25c-10.99,7.03-31.69,22.21-50.44,38.24C563.91,289.52,578.13,289.52,585.25,290.08z"/>
		<path class="st0" d="M690.34,234.97c-17.46,12.65-45.59,38.52-63.05,54.55c6.14,0,15.52,0,23.93,0.28c0.65,0,2.91,0.28,2.26,1.97
			c-0.32,1.12-2.26,1.12-4.2,1.12c-10.02,0-18.11,0.28-25.54,0.56c-22.63,22.21-39.77,38.52-70.81,67.2
			c-51.41,47.24-117.7,84.63-184.63,84.63c-35.89,0-61.76-14.06-65.64-33.46c-0.97-4.22-0.32-7.03,1.62-7.31
			c1.62-0.56,1.62,1.69,2.26,4.5c3.56,17.71,27.81,31.49,61.44,31.49c63.38,0,113.82-41.61,156.18-80.69
			c21.34-19.4,33.95-32.61,71.46-66.64c-4.53-0.28-16.49,0-20.69,0c-2.26,0-2.59-0.56-2.59-1.41c0-1.12,1.94-1.69,2.91-1.69
			c3.88-0.28,16.49-0.28,24.25-0.56c10.67-9.84,41.39-39.08,70.49-57.36c25.54-16.03,60.14-29.24,86.66-29.24
			c23.93,0,40.42,6.19,40.42,16.03c0,3.09-1.94,5.91-4.2,5.91c-2.26,0-4.2-1.97-6.47-3.94c-6.14-5.06-14.87-12.93-31.37-12.93
			C729.79,207.98,716.21,216.42,690.34,234.97z"/>
		<path class="st0" d="M726.23,292.33c0,9.56-8.73,24.74-27.49,41.05c-27.16,24.18-50.12,34.58-64.35,34.58
			c-10.67,0-21.02-4.5-21.02-16.87c0-10.4,8.73-26.15,23.6-39.08c25.54-22.21,52.71-30.65,71.46-30.65
			C719.12,281.37,726.23,283.62,726.23,292.33z M716.53,286.15c-9.7-0.28-33.95,15.75-60.47,39.36
			c-15.2,13.5-27.81,26.71-27.81,33.74c0,2.81,1.62,4.5,5.17,4.5c9.7,0,32.34-16.59,59.17-39.93c11.32-9.84,27.81-27.27,27.81-34.58
			C720.41,287.55,719.12,286.15,716.53,286.15z"/>
		<path class="st0" d="M900.51,216.98c-9.7,1.97-20.69,8.43-26.19,12.09c-32.01,21.09-63.38,47.52-99.59,79.85
			c-12.93,11.25-25.87,23.9-35.57,33.74c-8.73,9.28-12.29,14.06-12.29,17.15c0,2.25,0.97,3.09,3.56,3.09
			c6.47,0,22.31-8.72,30.72-14.06c10.67-7.03,22.96-16.03,30.07-21.65c0.97-0.56,3.23-2.53,4.53-1.12c1.29,1.41,0,2.81-1.94,4.22
			c-6.47,5.34-23.61,17.71-30.72,22.21c-10.35,6.75-25.22,15.18-35.57,15.18c-11.64,0-16.49-5.06-16.49-13.21
			c0-3.66,1.29-8.15,4.2-12.93c6.14-9.84,21.66-24.74,42.04-42.74c34.92-30.93,72.75-60.45,94.74-73.1
			c6.47-3.94,11.32-5.62,18.11-7.31c7.44-1.97,22.31-2.53,30.39-2.25C901.15,216.14,901.15,216.7,900.51,216.98z"/>
		<path class="st0" d="M805.76,342.38c-7.44,7.31-12.93,13.78-12.93,17.43c0,2.25,1.29,3.09,3.56,3.09
			c6.47,0,21.02-7.59,30.72-14.06c10.67-7.03,22.96-16.03,30.07-21.65c1.29-0.56,3.23-2.53,4.85-1.12c1.29,1.41,0,2.81-1.94,4.22
			c-6.47,5.34-23.93,17.71-30.72,22.21c-10.67,6.75-25.22,15.18-35.57,15.18c-11.64,0-16.81-5.34-16.81-13.78
			c0-8.15,5.5-18.84,17.46-29.8c12.61-11.53,37.51-32.05,50.44-38.24c4.85-2.25,24.9-3.09,29.1-2.81
			C846.18,304.7,817.08,330.85,805.76,342.38z M881.75,270.96c-7.11,0-12.93-5.06-12.93-11.25c0-6.19,5.82-11.25,12.93-11.25
			s12.93,5.06,12.93,11.25C894.69,265.9,888.87,270.96,881.75,270.96z"/>
		<path class="st0" d="M960,292.33c0,9.56-8.73,24.74-27.49,41.05c-27.16,24.18-50.12,34.58-64.35,34.58
			c-10.67,0-21.02-4.5-21.02-16.87c0-10.4,8.73-26.15,23.6-39.08c25.54-22.21,52.71-30.65,71.46-30.65
			C952.89,281.37,960,283.62,960,292.33z M950.3,286.15c-9.7-0.28-33.95,15.75-60.47,39.36c-15.2,13.5-27.81,26.71-27.81,33.74
			c0,2.81,1.62,4.5,5.17,4.5c9.7,0,32.34-16.59,59.17-39.93c11.32-9.84,27.81-27.27,27.81-34.58
			C954.18,287.55,952.89,286.15,950.3,286.15z"/>
	</g>
</g>
</svg>
