<?xml version="1.0" encoding="utf-8"?>
<!-- Generator: Adobe Illustrator 28.2.0, SVG Export Plug-In . SVG Version: 6.00 Build 0)  -->
<svg version="1.1" id="Layer_1" xmlns="http://www.w3.org/2000/svg" xmlns:xlink="http://www.w3.org/1999/xlink" x="0px" y="0px"
	 viewBox="0 0 1090 1090" style="enable-background:new 0 0 1090 1090;" xml:space="preserve">
<style type="text/css">
	.st0{fill:#FFA4EB;}
	.st1{fill:#FFFFFF;}
</style>
<g>
	<circle class="st0" cx="545" cy="545" r="504.5"/>
	<g>
		<g>
			<path class="st1" d="M107.1,462.91v67.93h78.54v-67.93h21.2v162.38h-21.2v-76.13H107.1v76.13H86.14V462.91H107.1z"/>
			<path class="st1" d="M319.35,625.29v-68.9l-51.31-93.47h23.85l22.88,44.81c6.26,12.29,11.08,22.17,16.14,33.49h0.48
				c4.58-10.61,10.12-21.2,16.39-33.49l23.37-44.81H395l-54.45,93.24v69.15h-21.2V625.29z"/>
			<path class="st1" d="M548.71,549.17h-63.12v58.55h70.35v17.59h-91.32V462.91h87.69v17.59h-66.73v51.31h63.12V549.17z"/>
			<path class="st1" d="M667.47,462.91h20.96v108.66c0,43.13-21.2,56.37-49.14,56.37c-7.72,0-17.1-1.69-22.4-3.86l3.13-17.1
				c4.34,1.69,10.61,3.14,17.59,3.14c18.79,0,29.87-8.43,29.87-40.24L667.47,462.91L667.47,462.91z"/>
			<path class="st1" d="M795.4,462.91v162.38h-20.96V462.91H795.4z"/>
			<path class="st1" d="M883.1,625.29V462.91h22.88l52.03,82.15c12.04,19.03,21.45,36.14,29.15,52.77l0.48-0.24
				c-1.92-21.68-2.41-41.44-2.41-66.73v-67.95H1005v162.38h-21.2l-51.56-82.4c-11.32-18.07-22.17-36.62-30.35-54.2l-0.72,0.24
				c1.2,20.48,1.69,39.99,1.69,66.98v69.39H883.1z"/>
		</g>
	</g>
</g>
</svg>
